<?xml version="1.0" encoding="utf-8"?>
<!-- Generator: Adobe Illustrator 16.0.0, SVG Export Plug-In . SVG Version: 6.00 Build 0)  -->
<!DOCTYPE svg PUBLIC "-//W3C//DTD SVG 1.1//EN" "http://www.w3.org/Graphics/SVG/1.1/DTD/svg11.dtd">
<svg version="1.1" id="Ebene_1" xmlns="http://www.w3.org/2000/svg" xmlns:xlink="http://www.w3.org/1999/xlink" x="0px" y="0px"
	 width="50px" height="60px" viewBox="0 0 50 60" style="enable-background:new 0 0 50 60;" xml:space="preserve">
<style type="text/css">
<![CDATA[
	.st0{fill:#FFF191;}
	.st1{fill:#FFFBDE;}
	.st2{clip-path:url(#SVGID_2_);fill:#FFF191;}
]]>
</style>
<g>
	<defs>
		<rect id="SVGID_1_" y="0.001" width="50" height="59.999"/>
	</defs>
	<clipPath id="SVGID_2_">
		<use xlink:href="#SVGID_1_"  style="overflow:visible;"/>
	</clipPath>
	<path class="st2" d="M22.899,37.699c3.654-1.569,5.069-3.72,5.069-7.022V26.63c0-6.03-3.159-9.583-11.964-9.583H0v7.916h10.773
		v0.014h3.902c2.243,0,3.323,0.909,3.323,2.727v3.551c0,1.817-0.914,3.304-3.821,3.304h-3.404v0.003H3.679v7.669h6.988v0.012h5.087
		c2.741,0,3.905,0.99,3.905,3.386v2.891c0,2.147-0.916,3.553-3.989,3.553H4.707v-0.006H0V60h17c9.138,0,12.628-4.048,12.628-10.243
		v-3.964C29.628,41.581,27.137,38.689,22.899,37.699"/>
</g>
<polygon class="st1" points="40.127,0 30.262,5.612 30.259,5.609 30.259,5.614 30.256,5.614 30.259,5.617 30.256,16.897 
	40.127,22.516 50,16.897 40.127,11.253 "/>
<path class="st0" d="M50,16.901L50,16.901L50,16.901z M40.127,0l-9.871,5.621l9.871,5.643v11.252l9.869-5.61L50,16.907v-0.006V5.621
	L40.127,0z"/>
</svg>
